<svg id="Layer_1" data-name="Layer 1" xmlns="http://www.w3.org/2000/svg" viewBox="0 0 715.34 114.17"><defs><style>.cls-1{fill:#16264c;fill-rule:evenodd;}</style></defs><title>stroke-right</title><path class="cls-1" d="M298.19,412c1.49-2,0,3.07,0,0Zm-52.58,1.27c1.45-2,0,3,0,0ZM680.69,411c1.1-1,2.29-1.67,3,.09,1.62,4.26-4.86,2.39-3-.09Zm-16.54,1c.31-.81.7-2.05,1.69-.65,2.18,3.08-2.26,2.62-1.69.65ZM304.78,427.8c24.48-3.22,46.36.94,70.63-1.33,14.53-1.36,27.15-.47,41.51-.53,12.53-.05,31.19-3.37,41.86-2.07,11.66,1.43,17,.43,28.35-1.3,16.72-2.57,17.27,5.19,27.14,1.87,9.14-3.08,10.42-3.28,20.17-2.71,26.69,1.56,53.86-1.22,80.79-.55,25.94.73,51.35.4,77.23.82,22.79.38,44.94,1.94,67.5,2.51,34.42.88,67.78,3.06,100.63,13,4.85,1.47,28.91,8.7,22.37,14.71-4.52,4.16-4.39,1.31-4,7.69,1.11,15.83-17.52,9.13-13.41,16.83,5.55,10.42,1.86,4.86-2.72,14.13,8.76,6.84,18.6,4.09,21.61,16.81-2.29.39-4.56.78-6.88,1-3.77.43-32.26.35-31.08,2,1,1.41,39.74,6.15,21.12,11-20.11,5.28-63.16.26-86.6.38-21.45.1-43-.39-64.36-.09-13.52.21-32.52,1.21-45.38.26-11.61-.86-16.31.77-26.28.75-12.28,0-23.58-1-36.45-.65-19.1.4-38-.61-57.06-.32s-36.93-.39-55.64-.39c-13.22.11-26.89,1.84-40,.83-16.2-1.25-30.64-1.28-46.83-1.23-7.26,0-25.54.8-31.18-.11-11.31-1.83-7-25.64-33.64-15,2.53,5.73,4,6.63,10.17,9.47,2.14-3.88,2.33-8.44,5.69-4,7.51,9.84.62,10-8.93,9.56-19.33-.79-36.91,4.45-54.81-3.09,3.36-2.3,13.5-7.74,14.72-10.76,1-2.42-7.5-8.54-1.88-6.21,17.07,7.06,4.95,9.17,5.48,12.46,4.86,1.81,11.59,2.62,14.68-2,4.61-6.91-1.53-11.81,11.07-11,9.68.64,17.62-3,7.12-9-5.93-3.37-7.09-2.29-9.19,2.21-1.7,3.64-5.85-.24-9.29-1.82-2.52,7.46-2.53,3.71-9,1.44-4.48-1.57-31.69-1.55-33.81,1.59-3.94,5.82,18.45,3.92,10.94,11.26-3.5,3.42-4.11.6-6.27-.71-8.73-5.25-7.28-3-11.4-11.14-3.93-7.77-13.14-3.84-20.47-2-3.79.95-5.82-.85-4.66-3.46,4-9,30.61,1.95,45.33-7.4-10.72-3.56-50.55-2.9-64.53-2.65-12.05.21-46.73,1.56-56.72-.11-4.56-1.5,2-3.33-3-4.13-7.63-1.23-8.67-7.51-1.74-11,9.68-3.23,14.21,1,.38-8.13,5.57-5.21,8.14-6.89,16.4-7.6,21.66-1.88,44.15-.68,66.43-2.52,8.61-.76,16.61,1,24.42,0,8.51-1.57,19.74-.19,24.6-7-21.46-6.62-30.24-1.1-51-1.35-14.19-.17-28.1.36-42.24.39-6.13.14-34,3-36.75-1.38-3.32-5.26,18-5.36,21.05-5.42,11.56-.42,25.54.24,36.53-.62,10.19-.81,19.65-.17,29.74-.75,15-1.06,26.73.52,41.43-1.56Zm169.61,6.34c-.1-.91-.91-.57,0,0Zm-37.1-.51c-.91.83-2.39,2.7-.53,3.47,3.4,1.42,3.36-4.81.53-3.47ZM399.8,437.9c1.07-.11,2.32-.45,2.15-1.62-.55-3.57-5.28.94-2.15,1.62Zm-47.57-.81c0-1.56-1.36-.5,0,0Zm150-1.55c-.16.62-.49,2.08.58,2.23,2.91.41.63-4.47-.58-2.23ZM496.66,437c.41.14,1,.3,1.37-.08,1.55-1.9-3.06-1.18-1.37.08ZM242.31,450.78c.45-1.29-1.6-.48,0,0Zm26.8,7.25c0-.75,0-2.92-1.49-2.37-3.37,1.24.85,4.61,1.49,2.37Zm179.65,6.56c.05-.53,0-2.19-1-2-2.31.43.3,3.51,1,2Zm-25.6-1.71c-1.23-.05-2.67.24-2.33,1.6.93,3.77,5.41-.28,2.33-1.6Zm-178.47,6.19c.08-1.25-1.3-.7,0,0Zm-15.62-1.2c-.66-.18-1.35-.1-1.58.54-1.12,3.11,3.75,1,1.58-.54Zm-12,.09c-1-.28-1.74,0-1.74,1,0,2.9,3.45.31,1.74-1Zm-13.3,3.1c1-.48,1.66-1.28.88-2.18-2.21-2.55-3.32,2.31-.88,2.18Zm-10.11-.73c.07-1.2-1.27-.61,0,0Zm-13.28-.09c.17.66.65,1.93,1.69,1.3,2.75-1.68-1.72-3.92-1.69-1.3Zm204.5-.92c-.2.67-.42,1.9.73,2,3.26.27.74-3.69-.73-2Zm462.69,2.83c.82,0,1.65.09,1.3-1.12-.83-2.92-3.36.79-1.3,1.12Zm-479,19.33c.26.8.87,2.06,2.06,1.37,3.22-1.9-2.15-4.19-2.06-1.37Zm110,7.35c1.24-3.09-2.21-8.29-4.66-6.15-4.43,3.86-.53,10.65,4.66,6.15Zm-44.64,5.81c2.29-6.38,1.24-12.42-8.39-11-19.54,2.84-6.24,4.46,1.17,7.72,3,1.29,5.87,4.78,7.22,3.3Zm67.7-12.34c1-.92-1.66,0,0,0Zm-98.86,6.26.65-.91c-1.54-2.54-15.81-2.14-18.43-2.11-4.46,0-30.44,1.29-10,3.58,7.59.85,21.36,3.07,27.74-.56Zm45.73.41c1.6.51,5.34,1.61,6.93.69,4.11-2.37-11.76-3.22-6.93-.69Zm90.65-2c.53-1.23-1.49-.23,0,0Zm-26.76-.79c-.53.55-1.2,1.45-.37,2.05,2.16,1.53,2.06-3,.37-2.05Zm-25.87,2c.84-.9-1.47-.09,0,0Zm-21.76,1.32c1.22.08,1.79-.63,1.48-1.6-.93-2.88-3.48.87-1.48,1.6Zm-44.26,11c-2.39-7.85-5.49,3.66-10.08-2.57-2-2.75-1.59-4-3.54-2.1-3.17,3.1-13.26,3-18.9,4.75-11.76,3.74,13.09,3.77,14.29,3.82,5.53.23,18.37,3.08,18.23-3.9Zm-36.34-5.8c-.46.64-.82,1.51.11,2,2.39,1.25,1.41-3.3-.11-2Zm85.6,6.11a7.63,7.63,0,0,0-1.56-3.08c-1.35,2,3.76,9.1,1.56,3.08ZM509,509.46c-1.65,1.31-2,2.68.11,3.87,5.84,3.27,6.5-8.6-.11-3.87Zm-66.46,2.71c.8.79,1.95,1.51,2.67.19,2.06-3.79-4.22-3-2.67-.19Zm-8.65.83c.84.6,2,1.15,2.52-.1,1.39-3.59-4.37-2.26-2.52.1Zm19.54.45c.22-.77.77-2.9-.76-2.91-3.9,0-1,6.37.76,2.91Zm-28.33-.05c-.06-.54-.24-1.71-1.17-1.45-2.49.69.88,3.81,1.17,1.45Zm339.45-97.68a1.77,1.77,0,0,1,.28-1.68c3.07.94,1.15,5.17-.28,1.68ZM834,423.78c21.07,4.66,23.46.17,1.67-1.28-2.8-.18-7.58-.35-1.67,1.28ZM215.54,504.42c11.94-.1-6.77-3.23-7.52-8.56-.34-2.43-.24-4.79-.37-7.22-10.61-2-23.32-4.53-33.08.92,12.13,10.8,23.38,4.62,26,7.41,2.27,2.46-5.91,6.15,15,7.45ZM233.59,490c8.38,4.26,24.9-1.56,9.44-2.31-3.14-.15-7.16-.2-9.65,1.67l.21.64Zm-15-2.35c-2.5-2-3.9,4.4,0,2.9,1.42-.55.6-2.08,0-2.9Zm5.7,2c0,2.3,3.94.16,1.46-1.16-1-.51-1.32.55-1.46,1.16ZM212.58,495c.76,1.3,1.18,0,0,0Zm17.14,5.12c.77,1.11,1,.12,0,0Zm41.18,3.28c-.61-2.68-9.19-1.69-4.44,1,1.71,1,3.6.64,4.44-1Zm53.06-3c-2.16.61.84,4,1.56,1.25.26-1-.65-1.24-1.56-1.25Zm-65.09,8.27c.71,1.11,1,.14,0,0Zm-85.16,13c4.08,1.54,13.77-1.71,12.48-3.52-1.57-2.18-15.2-4.95-12.48,3.52Zm92.79-4.87c8.82,5,38.4,3.63,12.75-1.17-1.09-.2-16.32-3-12.75,1.17Zm-22-2.15c-3,.89,1.46,6.12,2.38,2.1.34-1.47-.91-2-2.38-2.1Zm-12.09.83c-2.36-2.63-8.71,4.31-1.94,3.35,2.29-.32,3.19-1.52,1.94-3.35Zm-25.9-.24c-3.18-1.2-3.09,6.09.8,4.13,2-1,.29-3.15-.8-4.13Zm-14,2.38c-.87-.11-.95.64-.91,1.21C192.84,521.18,195.83,518.56,192.47,517.61Z" transform="translate(-169.15 -410)"/></svg>