<?xml version="1.0" encoding="utf-8"?>
<!-- Generator: Adobe Illustrator 24.0.1, SVG Export Plug-In . SVG Version: 6.00 Build 0)  -->
<svg version="1.1" id="Layer_1" xmlns="http://www.w3.org/2000/svg" xmlns:xlink="http://www.w3.org/1999/xlink" x="0px" y="0px"
	 viewBox="0 0 1094.4 178.3" style="enable-background:new 0 0 1094.4 178.3;" xml:space="preserve">
<style type="text/css">
	.st0{fill-rule:evenodd;clip-rule:evenodd;fill:#16264C;}
</style>
<title>stroke-left</title>
<path class="st0" d="M740.7,9.1C741.3,9.1,741,9.5,740.7,9.1z M810.5,13.1c13.7,6.8,51.1,3.4,67.2,1c12.8-1.9,16.3-6.2,0.8-7.6
	c-9-0.8-65.9-0.8-69.1,5v0.7L810.5,13.1L810.5,13.1z M799.2,13.1c2.5-1.9-4.5-3.8-3-0.4C796.7,13.9,798.1,13.6,799.2,13.1z
	 M906.4,8.3c-0.7-3.1-3.7,2.9-0.6,1.6C906.4,9.7,906.4,8.8,906.4,8.3z M725.9,19c-6.2,0.4-5.1-2,2.2-1
	C731.5,18.4,726.6,18.9,725.9,19z M128.5,7.3C184.7,5.8,242.8,5.7,299,7.9c50.4,2-28.8,2.8-35.6,2.8c-38.8-0.5-75.6-1.3-114.5-0.6
	c0,0-90.1,1.6-61.1-0.7C101.1,8.4,115.1,7.7,128.5,7.3z M329.1,17.7c-9,0.2,4.7,3,6.3,0.4C333.3,17.7,331.2,17.6,329.1,17.7z
	 M1090.1,46.4c-7-9.7-38.7-14.7-51.3-16.8c-18.6-3.1-90.6-10-97.6-12.6c0.3-0.6,32.1-3.3,36.1-3.9c-6.4-1.4-12.8-2.3-19.3-2.7
	c-6.6-0.5-31,1.2-34.2-2.1c-0.2-0.2-22.9-6.5-24.2-6.9c-10-2.3-16.7-1.3-26.7-0.2c-26.4,3-56.5-0.7-82.6,2
	c-18.5,1.9,6.2,16.1-45.8,13.6c-36.3-1.7-70.4-1.4-106.6-1.9c-12.8-0.2-13.5,0.4-25.1,3.4s-48-0.2-61.5-1.3
	c-35.9-2.4-71.1,5-105.4,1.5c-26.7-2.8-47.3-4.1-74.3-3.8c-26,0.3-55.2,3-80.4,1.9c-14.6-0.7-29.2-0.6-43.8,0.3
	c-18.6,0.9-34.2-1.1-52.2-0.7c-53.8,1.1-110,5.7-163.6,2.4C-4.1,16.5-3.3,10.9,3.9,40.5c3.5,14.4,3.2,25.9,9.3,40
	c5.6,13,4.1,9.2-0.7,20.4c-3.8,8.9-2.1,35,6.1,42.3c6.1,5.5,26.7,5.9,35.6,6.9c22.9,2.8,29.7,11.1,52.7,13.1
	c28,2.5,101.2,9.4,124.7,4.7c17.1-3.4-15.4-7.4-3-8.8c21.4-2.5,16.6,12.3,27,4.9c14.2-10.1,4.6,1.8,14,2.6
	c15.5,1.3,13.6,0.4,10.6-7.7c14.4,0.9,12.8,2.2,22.9,8.3c6.8,4.2,10.8-9.1,32.9-3.8c25.6,6.2,30.6-4.1,51.1,0c9.8,2,20.3-1.3,32-1
	c19.1,0.5,36-0.3,55-0.7c19.3-0.5,9.6-3.8,16-3.8c29.1,2,58.2,7.2,87.6,6.2c15.3-0.6,35.1-15.9,44.9-25.4c-13-7.9-41.7-6.8-57.4-7.3
	c-20.3-0.7-55.6-6.5-9.4-6.7c58.1-0.2,116.4,4.6,174.9,2.4c35.9-1.3,71.8-1.8,107.7-3.2c22.8-0.8,52.4,0.8,74.1-3.4
	c-16.7-9.4-24.9-6-42.1-7.8c-8.1-0.9-9.5-5.9-4.1-7.6c4.9-1.6,75.7-1.7,85-1.3c20.8,0.9,17,4.3,30.6-7.3
	c10.9-9.3,35.7-11.2,50.3-8.9c12.1,1.9,15.3,7,26.8,2.9c10.2-3.6,10.1-2.9,21.9-3.9c64.4-5.7-123.9-8.7-67.9-12.6
	c6.9-0.4,13.5-0.8,20.4-1c24.4-0.6,24.3,2.3,13.4-9.4c-4.1-4.4-7-5-3.3-6.2c5.2-1.8,19.8-3.2,21.5,2c4.1,12.3-3.9,13.6,15.3,14.2
	c6.8,0.2,13,1.8,9.3-4.9C1082.4,56.2,1094.3,54.6,1090.1,46.4L1090.1,46.4z M1045.6,36.8c1.7,0.3,2.6,1.3,1.6,2.7
	C1044.1,44,1041.9,37.6,1045.6,36.8z M1017.8,59.3c-1.2-0.1-4.1-0.4-3.2-2C1017,53.2,1023.3,58.8,1017.8,59.3z M1008.2,59.3
	C1007.8,57.5,1010.7,58.5,1008.2,59.3z M967.9,76.5C966.8,74.5,971,76.1,967.9,76.5z M961.4,94.3c0.4-1.8,1.5-4.4,4.3-3.5
	C973.4,93.3,961.9,99.2,961.4,94.3z M772,108.7c0.2-1.1,0.8-3.5,2.7-2.8C779.6,107.7,772.2,112.2,772,108.7z M794.1,105.2
	c1.9,0.4,3.1,1.5,1.9,3.1C792.7,113.1,789.8,105.8,794.1,105.2z M823.7,107.7c1.6-1.6,4.3-3.6,6.3-1.2
	C835.6,113.2,820.3,113.7,823.7,107.7z M519.7,125C517.9,125.2,518.8,123.2,519.7,125z M599.8,143.5l-2,1.2
	c-16.4,9.4-1.7,13.1-17.7,14c-11,0.6-5.6-1-4.2-3.5c3.5-6.1-25.5-16,7.2-14.2C586.5,141.3,600.8,140.7,599.8,143.5L599.8,143.5z
	 M996,100.4c2.9-2.7,5.1,4.2,0.2,3C994.3,103,995.3,101.3,996,100.4z M932.2,121.1c-10.2-1.5,9.4-7.2,13.1-7.1
	C955.5,114.2,955.6,124.7,932.2,121.1z M694.1,142.3c-5.5,1.4-4.4,1.4-1.3,6.3c10.9,17.4,33.5,18,53.2,12.9
	c-1.8-6.7-5.4-13.9,7.3-12.2c11.5,1.6,13.9,16.2,9.9,17.9c-4.3,1.8-78.7,1.2-88,0.1c-11.4-1.3-9.5,0-8.5-10.5
	c1.8-19.4,4.9-11.3-24.3-16.8c-21-4.5,81.1-4.3,83.4-4.3c22.5-0.1,131.9,0.3,115.8,2.6c-15.4,2.1-53.4,1.5-70.7,1.7
	c-22.8,0.3-51,0.1-73.3,1.9C696.4,141.9,695.2,142,694.1,142.3L694.1,142.3z M674.6,154c2.1-0.7,4.3,0.7,5.9,1.8
	C696.5,166.6,663.2,162.7,674.6,154z M908.4,148.2C904.3,147.7,910.2,145.7,908.4,148.2z M640.8,151.3c18.4,19.6,0.8,18.2-1,14.2
	c-1.1-2.4-2.3-13.5-0.3-15.2L640.8,151.3L640.8,151.3z M613.3,156.8C611,156,613.7,155.1,613.3,156.8z M282.6,22.5
	c-2.3,0.8-7.8,0.9-10-0.3C267.8,19.5,280.9,21.2,282.6,22.5z M310.6,21.1C311.2,19.6,311.9,20.1,310.6,21.1z M361.9,26.4
	c-1.3,0.7-3.4,1.2-4-0.4C356.2,21.3,364.8,23.8,361.9,26.4z M386.2,25.9C387,24.4,387.5,24.7,386.2,25.9z M412.1,25.3
	c0.2,0.3,0.3,0.3,0.2,0.6C411.1,25.4,411,24,412.1,25.3z M459.5,25.9c6.2,5.9-16,3.3-17.9,3C412.5,24.9,446.4,20.9,459.5,25.9z
	 M203.4,163.6c-30.6,1.5-5.8-5.5,7.8-4.4C227.8,160.4,207.3,163.3,203.4,163.6z M56.6,153.8c9.6,1.3-3.3,9.4-4.8,2.5
	C51.3,153.9,54.7,153.7,56.6,153.8z M324.6,165.8c4.4,4.4-7.8,6.8-5,0.5C320.6,164.1,322.8,164.6,324.6,165.8z M97.7,166.5
	c5.7,3.4-7.2,7.9-5.6,1.3C92.8,165.2,95.6,165.7,97.7,166.5z M121.3,170.9c30.1-0.6,7.6,3.9-4.9,0.7
	C118,170.8,119.4,171,121.3,170.9z M218.1,174.1c3.3-3.7,8.4,5,1.1,4.1C216.5,177.9,217.3,175.5,218.1,174.1L218.1,174.1z"/>
</svg>
